<svg
    fill="none"
    xmlns="http://www.w3.org/2000/svg"
    viewBox="0 0 752 203"
  >
    <path
      d="M752 113.723C733.781 114.392 715.562 114.965 697.342 115.729C694.082 115.824 689.767 114.105 688.137 118.498C686.507 122.7 687.562 126.997 690.247 130.531C699.932 143.71 718.534 143.232 726.685 129.003C731.767 120.121 738.863 122.509 744.712 125.278C751.425 128.525 747.589 134.828 745.096 139.317C740.301 148.103 733.301 155.36 723.137 156.984C702.233 160.326 682.192 158.225 663.589 144.187C667.521 158.034 660.233 161.377 648.822 161.186C630.219 160.804 611.616 160.517 593.014 160.231C592.63 160.231 592.151 160.326 591.863 160.04C578.534 147.816 564.822 155.551 550.151 157.366C528 160.231 505.178 157.939 482.644 157.748C475.356 157.652 471.712 153.068 471.041 145.906C445.822 164.146 430.192 162.523 409.671 140.367C404.877 158.13 404.877 158.13 384.836 158.13C374.767 158.13 364.699 157.27 354.63 157.748C345.233 158.225 340.342 156.506 343.603 145.715C344.37 143.232 345.616 139.699 343.603 136.834L343.411 137.025C358.945 135.974 359.712 135.306 359.808 120.503C359.904 112.864 359.904 105.224 359.329 97.584C358.753 89.1801 358.562 79.9168 345.425 82.6863C342.931 83.1638 341.493 80.6808 340.151 78.7709C339.384 66.6426 345.712 63.3002 356.74 65.1146C365.945 66.6426 375.151 67.5976 384.452 65.7831C391.356 64.4462 394.137 67.7886 393.849 74.9509C393.274 90.3261 392.794 105.797 393.178 121.267C393.37 131.008 394.904 131.677 406.795 131.868C400.945 111.909 405.26 93.6685 416.384 76.7654C430.192 55.8513 448.603 57.7613 468.26 67.0246C470.178 60.3397 469.507 54.6099 468.931 48.88C468.644 45.9195 468.548 42.9591 464.521 41.7176C449.658 37.0382 449.562 36.6562 455.411 23C473.342 23 491.178 23 509.11 23C512.945 26.8199 516.205 30.5443 509.205 34.4598C504.027 37.3247 503.74 42.1951 503.836 47.4475C504.219 67.1201 503.74 86.7927 504.603 106.37C504.986 117.161 504.507 128.239 509.685 139.126C511.603 122.795 521.959 113.628 534.808 106.465C541.712 105.606 548.616 105.033 555.425 103.982C560.603 103.123 567.027 103.314 565.685 95.0055C564.438 87.2702 565.397 77.8159 553.794 76.9564C547.658 76.4789 542.767 77.8159 545.452 86.1242C548.808 96.056 545.836 102.645 534.616 103.982C528 101.881 519.37 103.696 516.877 93.8595C514.288 84.1187 520.233 78.1979 526.466 73.041C543.055 59.3848 561.753 61.5812 580.548 67.1201C592.438 70.6535 599.438 78.1024 601.068 90.8991C602.507 102.932 601.74 114.869 602.027 126.806C602.123 131.963 603.082 138.266 609.219 138.362C616.219 138.457 613.918 131.581 614.206 127.475C615.644 104.651 613.151 81.8268 615.644 59.0028C616.507 51.3629 612.959 47.2565 605.384 46.6835C599.918 46.3015 596.562 44.3916 597.233 38.1842C597.904 31.7858 601.74 29.6849 607.589 29.7804C618.425 30.0669 629.356 30.6398 640.192 30.7353C648.918 30.8308 651.603 34.0778 649.973 43.0546C645.945 64.1597 648.822 85.3602 651.027 106.465C649.301 114.392 649.589 122.413 650.164 130.435C650.548 136.356 653.137 140.463 660.712 138.171C656.301 127.761 653.425 117.448 653.425 106.561C658.219 84.5962 667.233 67.8841 692.74 62.6317C714.507 58.1433 734.164 63.3957 745.959 82.3043C747.685 85.0737 747.685 89.2756 751.904 90.2306C752 98.2525 752 105.988 752 113.723ZM439.301 115.06C439.685 117.734 440.069 121.172 440.932 124.515C442.562 131.199 443.329 139.03 452.726 139.317C462.89 139.508 467.685 133.491 470.082 124.037C472.575 113.914 471.712 104.173 469.411 94.337C468.164 88.7981 467.589 82.1133 460.11 81.4448C452.342 80.6808 446.589 84.5962 443.616 91.6631C440.548 98.8254 440.068 106.561 439.301 115.06ZM569.329 130.34C567.699 127.284 571.534 119.262 564.055 118.975C556.959 118.689 552.164 123.942 551.397 131.39C550.822 137.98 554.945 139.89 560.794 139.985C566.548 140.081 570.863 138.935 569.329 130.34ZM704.726 98.5389C707.795 95.101 715.274 101.213 715.658 94.337C716.041 87.2702 710.575 82.3998 703 82.1133C696 81.8268 691.493 86.6972 691.589 92.6181C691.781 101.404 700.123 95.292 704.726 98.5389Z"
      fill="#65A30D"
    />
    <path
      d="M343.795 136.834C336.699 143.232 333.63 153.259 324.233 157.557C310.233 163.955 296.521 163.764 282.904 156.315C278.877 171.691 279.452 173.409 292.014 181.145C296.808 184.105 294.89 188.594 295.082 192.605C295.274 196.997 293.644 200.244 288.945 200.913C272.74 203.205 256.438 203.491 240.233 202.345C234.767 201.963 232.274 198.621 231.89 193.082C231.411 187.352 232.37 183.437 238.89 181.909C248.575 179.617 246.753 171.309 246.37 164.719C245.795 156.602 238.795 159.849 234.575 160.231C225.562 161.09 217.315 159.753 210.795 153.355C205.712 148.294 201.589 149.439 196.507 153.068C186.726 160.04 175.123 160.422 164.096 159.371C152.877 158.225 146.26 149.535 142.137 138.935C123.918 168.253 79.3288 169.112 57.9452 141.227C56.1233 138.839 55.8356 135.21 52 134.637C52 122.986 52 111.431 52 99.7804C54.3014 99.5894 55.2603 97.9659 55.9315 96.056C65.3288 70.0805 84.1233 61.0082 111.26 61.7722C130.055 62.2497 148.274 84.8827 138.877 109.139C136.288 115.729 130.918 118.307 123.726 116.779C116.918 115.347 110.973 112.673 108.959 105.319C106.753 97.2975 110.781 92.0451 117.301 87.9387C119.123 86.7927 122.192 86.3152 121.808 83.3547C121.329 80.1078 118.164 79.5348 115.575 79.1528C104.931 77.6249 97.0685 82.0178 92.6575 91.3766C86.0411 105.319 85.6575 119.835 92.274 134.064C94.9589 139.794 98.7945 144.76 106.178 144.665C113.849 144.569 119.027 140.749 120.849 133.682C123.438 123.846 131.301 123.942 137.342 126.615C142.041 128.621 144.342 127.57 145.781 124.705C149.808 116.588 157.479 112.577 164.192 107.42C171.863 106.274 179.534 105.224 187.205 104.078C193.342 103.123 198.616 101.881 196.986 93.2865C195.452 85.5512 195.356 77.2429 184.521 76.9564C178.575 76.7654 175.123 78.4844 176.753 85.9332C179.726 100.067 178.479 101.308 163.904 103.982C149.329 100.64 143.767 93.0001 149.616 82.9728C154.795 73.9959 162.37 66.9291 172.918 65.0191C194.205 61.2947 214.63 62.4407 230.74 79.9168C232.466 75.9059 230.836 69.794 236.205 69.03C250.205 67.0246 264.493 61.5812 278.205 67.9796C282.425 69.985 284.151 69.6985 287.699 67.9796C305.438 59.3847 324.137 63.6822 336.411 78.7708C345.712 97.2975 348.397 116.588 343.507 136.834H343.795ZM306.397 116.97C305.63 111.049 304.959 103.409 303.329 95.865C301.986 89.6576 299.11 83.2593 291.438 84.1187C284.342 84.8827 281.082 90.9946 280.699 97.393C280.123 106.943 280.411 116.588 281.082 126.233C281.753 135.592 290 139.412 297.192 140.272C306.014 141.418 304.096 132.059 305.726 126.711C306.493 124.228 306.11 121.363 306.397 116.97ZM245.603 113.15C245.507 113.15 245.507 113.15 245.603 113.15C245.507 106.656 245.411 100.067 245.507 93.573C245.699 86.2197 239.562 87.1747 235.63 86.8882C229.301 86.4107 232.466 91.7586 232.753 94.2415C233.904 103.409 233.616 112.673 233.329 121.84C233.137 126.042 233.041 130.34 234.863 134.255C236.205 137.12 238.123 139.794 241.863 139.03C245.219 138.362 245.411 135.306 245.507 132.632C245.699 126.233 245.603 119.739 245.603 113.15ZM200.534 129.289C198.521 126.615 202.836 119.357 194.973 118.689C188.836 118.211 181.932 126.424 182.603 132.823C183.274 139.603 188.068 140.176 193.438 140.176C200.534 140.176 201.781 136.165 200.534 129.289Z"
      fill="#65A30D"
    />
    <path
      d="M374.288 62.2497C362.973 62.4407 357.219 56.4243 357.315 45.6331C357.411 35.5103 365.274 28.3479 376.493 28.5389C386.082 28.6344 393.178 38.0887 392.411 53.9414C391.74 66.1651 379.178 58.2388 374.288 62.2497Z"
      fill="#65A30D"
    />
    <g clip-path="url(#clip0)">
      <path
        d="M52.6463 27.1892C52.1315 27.3211 51.7212 27.5397 51.4023 27.7408C51.3349 27.7836 51.27 27.8302 51.208 27.8804C50.8431 28.1308 50.5202 28.3788 50.3875 28.4652C40.9608 34.6077 34.6779 44.8585 30.8098 55.2463C27.2983 64.6763 25.8484 74.0935 25.9895 81.1906C25.2633 81.3316 24.5508 81.5676 23.9272 81.9661C23.9253 81.9674 23.9233 81.9687 23.9214 81.97C22.1905 83.0838 21.2092 85.1749 21.2618 87.2202C21.2565 87.2234 21.2497 87.2238 21.2444 87.2272C21.2437 87.2274 21.2429 87.2276 21.2422 87.2278C18.6392 88.9003 17.7912 92.7927 19.4628 95.3984C19.4634 95.399 19.4639 95.3997 19.4645 95.4003C20.4169 96.8804 22.0834 97.8138 23.8235 98.0229C23.9501 98.3194 24.0592 98.625 24.2326 98.8968C24.2334 98.8981 24.2341 98.8995 24.2349 98.9009C25.9074 101.507 29.7986 102.357 32.4023 100.684C32.4033 100.683 32.4043 100.682 32.4053 100.682C33.6427 99.8847 34.4827 98.5808 34.8599 97.1601C35.5146 97.0087 36.1484 96.7603 36.7146 96.3982C36.7155 96.3976 36.7165 96.3969 36.7175 96.3963C37.4466 95.9279 37.9982 95.2646 38.4351 94.5251C38.3114 96.306 38.7141 98.1155 39.7318 99.5805C39.7323 99.5811 39.7329 99.5818 39.7334 99.5824C40.7318 101.016 42.2516 102.026 43.9228 102.547C46.652 104.654 50.7592 104.802 53.6237 102.811C53.6253 102.81 53.6269 102.808 53.6286 102.807C54.3908 102.274 55.0174 101.584 55.5651 100.833C57.6055 101.098 59.7512 100.616 61.4504 99.4333C61.4514 99.4327 61.4524 99.432 61.4534 99.4314C62.6719 98.5797 63.6113 97.3742 64.233 96.0283C66.3743 96.3995 68.6752 95.9528 70.4737 94.7041C70.4756 94.7024 70.4774 94.7007 70.4792 94.6991C71.2756 94.1419 71.9209 93.4105 72.4813 92.6175C74.1173 92.5787 75.7461 92.0675 77.0942 91.1291C77.0944 91.1286 77.0947 91.1282 77.095 91.1277C78.5787 90.0933 79.6486 88.5395 80.2143 86.8298C82.2225 87.0616 84.3249 86.6115 85.9945 85.4493C85.9955 85.4486 85.9965 85.448 85.9975 85.4473C87.3943 84.4719 88.4197 83.0335 89.0113 81.4426C91.1201 81.7777 93.3698 81.3464 95.1365 80.1197C95.1381 80.1185 95.1397 80.1173 95.1413 80.1161C96.4865 79.177 97.5283 77.8275 98.1316 76.3076C99.0711 76.0571 99.9826 75.7062 100.783 75.1516C100.785 75.1503 100.787 75.149 100.789 75.1477C102.138 74.2045 103.173 72.8404 103.775 71.3139C105.469 71.2474 107.147 70.7176 108.541 69.7494C108.543 69.7482 108.544 69.7469 108.546 69.7456C109.754 68.9013 110.648 67.6999 111.311 66.3841C112.005 66.1355 112.678 65.8299 113.284 65.4098C113.286 65.4084 113.288 65.407 113.291 65.4057C115.422 63.9173 116.713 61.3811 116.788 58.8031C118.958 56.0817 119.352 52.0017 117.37 49.1466C117.369 49.145 117.368 49.1434 117.366 49.1417C116.033 47.2308 113.803 46.0321 111.475 45.8291C109.125 44.4139 106.109 44.3384 103.62 45.5407C83.1006 28.6979 66.5582 23.6179 52.649 27.1882L52.6463 27.1892ZM99.0571 49.1068C90.7487 51.0338 107.585 47.3335 99.2459 49.0653C99.2195 49.071 99.1931 49.0773 99.1669 49.0841C99.0318 49.118 98.897 49.1541 98.7636 49.1945C100.399 48.6962 104.575 47.393 98.9121 49.1467L99.0571 49.1068ZM84.2203 59.837C80.1113 60.9703 88.5112 58.7454 84.3849 59.7941C80.8477 60.6929 85.4368 59.5652 84.5257 59.7598C84.3909 59.793 84.2562 59.8291 84.1231 59.8689C84.0887 59.8791 84.0546 59.8902 84.0207 59.9021C75.9185 62.7844 92.2196 57.0705 84.0945 59.8765L84.2203 59.837ZM82.259 60.7184C82.1256 60.7971 81.9942 60.88 81.8652 60.966C81.8643 60.9667 81.8632 60.9671 81.8623 60.968C81.8103 61.0023 81.7598 61.039 81.7111 61.0779L81.8696 60.9615C78.2922 63.3317 85.7186 58.5635 82.075 60.8291C78.8584 62.8293 83.4727 60.0366 82.259 60.7184L82.259 60.7184ZM76.7329 65.6509L76.8806 65.6125C68.5538 67.4576 85.3919 63.8997 77.0408 65.5787C77.0103 65.5849 76.98 65.5919 76.9498 65.5996C76.817 65.6328 76.6849 65.6682 76.5539 65.708C77.846 65.3432 82.6409 63.8799 76.7329 65.6509V65.6509ZM67.3945 71.0399C63.284 72.1698 71.6812 69.951 67.5538 70.9984C64.0549 71.8863 68.4503 70.8058 67.6904 70.9653C67.557 70.9981 67.4248 71.0335 67.2931 71.0729C67.2609 71.0826 67.2288 71.0931 67.1971 71.1044C59.0861 73.9555 75.4099 68.3073 67.2751 71.0777L67.3945 71.0399ZM61.6714 74.6267L61.8292 74.588C53.4718 76.2887 70.308 72.9767 61.9361 74.5673C61.8969 74.5747 61.8579 74.5832 61.8191 74.5928C61.6907 74.6249 61.5628 74.6598 61.436 74.6978C62.4145 74.3979 64.2229 73.8459 61.5291 74.6682C57.4432 75.9155 65.775 73.4529 61.6714 74.6266L61.6714 74.6267ZM54.1954 78.7401L54.3618 78.6955C46.0346 80.5202 62.8918 77.0173 54.5385 78.6595C54.5065 78.6658 54.4747 78.6728 54.443 78.6805C54.3096 78.7133 54.1774 78.7487 54.0458 78.7881C55.8615 78.2316 59.7122 77.0441 54.1954 78.74L54.1954 78.7401ZM40.9283 83.5662C41.244 84.3665 41.5827 85.1869 41.9493 86.0281C40.9759 87.1953 40.352 88.6278 40.1234 90.1238C39.8014 90.5537 39.4799 90.9834 39.2509 91.4684C39.2836 90.3289 39.1156 89.1891 38.4964 88.2245C38.4957 88.2231 38.4949 88.2218 38.4942 88.2204C38.4402 88.1367 38.3445 88.0897 38.2864 88.0089C39.1393 86.777 40.019 85.3187 40.9283 83.5661L40.9283 83.5662ZM46.2226 83.2936C37.9226 85.2547 54.7589 81.4972 46.4253 83.2484C46.3999 83.2539 46.3746 83.2599 46.3494 83.2664C46.3409 83.2685 46.3325 83.2711 46.324 83.2732C46.29 83.2792 46.2562 83.2859 46.2226 83.2936L46.2226 83.2936ZM46.0843 83.333L46.0921 83.3367C46.0471 83.3494 46.0015 83.3606 45.9567 83.3742C47.8305 82.7919 51.5361 81.6411 46.0844 83.3332L46.0843 83.333Z"
        fill="black"
      />
      <path
        d="M51.5272 30.2151C33.7557 41.795 27.0849 69.6513 28.0766 83.2496C28.4581 83.3479 28.8222 83.5047 29.1559 83.7143C29.3441 83.528 29.5511 83.3619 29.7737 83.2184C31.5501 82.077 33.9155 82.593 35.0568 84.371C35.7606 85.4707 35.8554 86.8535 35.3081 88.0386C35.4257 88.1009 35.5399 88.1693 35.6504 88.2435C37.3293 86.1436 39.254 82.7585 41.3954 77.8197C41.3617 77.87 41.1078 77.8504 40.908 77.4623C40.7858 77.2473 40.6909 76.9795 40.618 76.6337C40.4693 75.9434 40.4219 75.1501 40.4626 74.0973C40.5362 72.0961 40.8978 69.7364 41.6797 67.0008C41.7757 66.6624 41.8776 66.3199 41.986 65.9751C42.7284 63.6135 43.6229 61.6483 44.7111 59.9944C45.3954 58.9494 46.0913 58.1703 46.8251 57.5968C48.2083 56.499 49.241 56.6807 49.2605 56.8008C49.2876 56.9683 48.4169 57.2232 47.4317 58.2655C46.86 58.8793 46.3564 59.6108 45.7825 60.6441C44.8738 62.2891 44.1331 64.1196 43.406 66.4234C43.3009 66.7563 43.1998 67.088 43.1019 67.4158C42.3009 70.1177 41.8454 72.2387 41.5442 74.1991C41.3844 75.2567 41.3139 75.8699 41.297 76.566C41.2906 76.9079 41.2925 77.0971 41.3193 77.3169C41.3654 77.5758 41.4069 77.8025 41.3954 77.8197C41.5529 79.5425 42.8767 83.0803 44.4095 86.5114C44.5262 86.4143 44.6464 86.3214 44.7698 86.2328C46.3993 85.1005 48.4563 84.7975 50.2947 85.4191C50.6319 83.9049 51.5397 82.5579 52.8311 81.6554C54.2966 80.6365 56.1172 80.2831 57.821 80.6869C58.2499 79.437 59.0747 78.3464 60.1705 77.5801C61.3149 76.7835 62.6867 76.3863 64.0614 76.4536C64.5263 75.4364 65.2611 74.5563 66.1856 73.9095C68.1237 72.5638 70.6344 72.4082 72.6491 73.509C72.6949 71.5584 73.6937 69.7206 75.3289 68.5783C76.8017 67.5538 78.6332 67.202 80.3438 67.6148C80.3954 65.6707 81.3932 63.8411 83.0228 62.7026C84.4215 61.7321 86.1462 61.3654 87.7866 61.6897C87.7398 59.6413 88.7526 57.6772 90.4739 56.4784C91.8392 55.5303 93.5171 55.1568 95.1256 55.4428C95.5231 54.0775 96.3884 52.8782 97.5706 52.0541C98.6813 51.2826 100.007 50.8864 101.342 50.9267C101.726 49.7859 102.441 48.773 103.396 48.0163C93.1997 38.799 65.8415 20.6114 51.5272 30.2151Z"
        fill="#D40000"
      />
      <path
        d="M45.345 86.7388C46.1482 86.1807 47.0683 85.8157 48.0292 85.6742C48.99 85.5327 49.9639 85.6186 50.87 85.925C51.2071 84.4108 52.1149 83.0637 53.4063 82.1613C54.1306 81.6577 54.951 81.3106 55.8119 81.1436C56.6729 80.9765 57.5542 80.9933 58.3962 81.1929C58.8252 79.9429 59.65 78.8523 60.7459 78.0859C61.8903 77.2893 63.2621 76.8922 64.6367 76.9595C65.1015 75.9423 65.8363 75.0622 66.7607 74.4154C67.7105 73.756 68.8206 73.3686 69.9638 73.2978C71.107 73.227 72.237 73.4756 73.2243 74.0151C73.2469 73.0538 73.5019 72.1044 73.9682 71.2465C74.4344 70.3887 75.0983 69.6473 75.9041 69.0843C76.632 68.5781 77.4569 68.2299 78.3224 68.0636C79.188 67.8973 80.0737 67.9168 80.919 68.1208C80.9445 67.1626 81.2008 66.217 81.6668 65.3627C82.1327 64.5083 82.7948 63.7698 83.598 63.2087C84.29 62.7285 85.0698 62.3908 85.8893 62.2165C86.7087 62.0422 87.5503 62.0351 88.3619 62.1955C88.3388 61.1875 88.5729 60.1819 89.0424 59.2712C89.512 58.3606 90.202 57.5741 91.049 56.9842C91.7248 56.515 92.4847 56.1816 93.2836 56.0037C94.0826 55.8259 94.9044 55.8072 95.7005 55.9487C96.0981 54.5834 96.9636 53.3841 98.146 52.5601C99.2566 51.7886 100.582 51.3924 101.917 51.4327C102.342 50.1679 103.172 49.0634 104.279 48.2894C105.352 47.5427 106.627 47.1458 107.919 47.1565C109.211 47.1671 110.454 47.5847 111.466 48.3486C112.413 48.3622 113.338 48.5948 114.165 49.0279C114.992 49.4611 115.7 50.0828 116.23 50.8434C117.036 52.0049 117.388 53.4254 117.223 54.8505C117.059 56.2756 116.388 57.6122 115.331 58.6209C115.422 59.6851 115.224 60.7631 114.756 61.7438C114.288 62.7244 113.568 63.5721 112.67 64.1993C112.003 64.6615 111.254 64.9916 110.467 65.1705C109.997 66.5337 109.107 67.7134 107.924 68.5398C107.185 69.0536 106.351 69.4159 105.471 69.6058C104.591 69.7957 103.683 69.8094 102.798 69.6462C102.687 70.4959 102.395 71.3184 101.942 72.0588C101.489 72.7992 100.884 73.4408 100.168 73.9408C99.2507 74.5772 98.1831 74.9601 97.0798 75.0485C96.7603 76.6011 95.8417 77.9872 94.521 78.9094C93.5712 79.5688 92.4611 79.9562 91.3179 80.027C90.1748 80.0978 89.0448 79.8492 88.0574 79.3097C88.0349 80.271 87.7798 81.2204 87.3136 82.0782C86.8473 82.9361 86.1835 83.6775 85.3776 84.2405C84.4686 84.8733 83.4114 85.2571 82.3176 85.3515C81.2238 85.4459 80.1338 85.2473 79.1627 84.7767C79.1745 85.7736 78.9351 86.7657 78.4663 87.6636C77.9974 88.5616 77.3137 89.3372 76.4767 89.9207C75.1534 90.8415 73.5339 91.2234 71.9663 90.9843C71.5006 91.9868 70.7721 92.8541 69.8585 93.4933C68.9199 94.1453 67.8243 94.5315 66.6947 94.6089C65.565 94.6862 64.4459 94.4515 63.4627 93.931C63.3516 94.7806 63.0597 95.6028 62.6063 96.343C62.1529 97.0833 61.5485 97.7247 60.8331 98.2247C60.0083 98.7988 59.0601 99.1688 58.0716 99.3024C57.083 99.436 56.0841 99.3291 55.162 98.9911C54.6993 100.036 53.9528 100.941 53.0078 101.602C51.8621 102.398 50.489 102.794 49.1136 102.726C47.7382 102.657 46.4422 102.127 45.438 101.222C44.0418 100.883 42.8299 100.057 42.0203 98.8946C41.2464 97.7805 40.8893 96.4261 41.0082 95.0559C41.127 93.6858 41.7148 92.382 42.674 91.3608C42.7432 90.4519 43.0195 89.5638 43.4822 88.7632C43.9448 87.9627 44.5817 87.2706 45.345 86.7388V86.7388Z"
        fill="white"
      />
      <path
        d="M24.396 84.5618C25.008 84.1697 25.7192 83.9603 26.4461 83.9583C27.1729 83.9562 27.8854 84.1615 28.5 84.5501C28.6882 84.3638 28.8952 84.1976 29.1178 84.0541C29.5402 83.7827 30.0119 83.5972 30.506 83.5083C31.0001 83.4193 31.5069 83.4286 31.9975 83.5357C32.4881 83.6427 32.9528 83.8454 33.3652 84.1321C33.7776 84.4188 34.1295 84.784 34.4009 85.2068C34.7472 85.7479 34.9518 86.3676 34.9958 87.0086C35.0397 87.6496 34.9216 88.2913 34.6523 88.8745C35.2345 89.1817 35.7276 89.634 36.084 90.1877C36.3554 90.6104 36.5409 91.0825 36.63 91.5769C36.719 92.0714 36.7099 92.5785 36.6031 93.0693C36.4963 93.5602 36.2939 94.0251 36.0075 94.4376C35.7211 94.8501 35.3563 95.2021 34.9338 95.4735C34.1639 95.9662 33.2429 96.1664 32.3379 96.038C32.4342 96.7579 32.3238 97.4904 32.0194 98.1497C31.715 98.809 31.2293 99.3679 30.619 99.7611C29.766 100.309 28.7301 100.496 27.7394 100.28C26.7487 100.063 25.8842 99.4624 25.3361 98.6087C24.978 98.0478 24.7723 97.4033 24.7393 96.7387C23.9604 96.9409 23.1375 96.8919 22.3879 96.5989C21.6382 96.3059 21 95.7836 20.5642 95.1066C20.0162 94.2528 19.8295 93.2163 20.0453 92.225C20.261 91.2338 20.8614 90.369 21.7145 89.821C22.0956 89.5772 22.5169 89.403 22.9588 89.3065C22.5962 88.4735 22.5417 87.5387 22.8051 86.6693C23.0684 85.8 23.6323 85.053 24.396 84.5618V84.5618Z"
        fill="white"
      />
    </g>
    <defs>
      <clipPath id="clip0">
        <rect
          width="118"
          height="167"
          fill="white"
          transform="translate(0.398987 31.1155) rotate(-15)"
        />
      </clipPath>
    </defs>
  </svg>